Coordinates
version=1
nRows=9
nColumns=24
inDegrees=yes

Units are S.I. units (second, meters, Newtons, ...)
Angles are in degrees.

endheader
time	pelvis_tilt	pelvis_list	pelvis_rotation	pelvis_tx	pelvis_ty	pelvis_tz	hip_flexion_r	hip_adduction_r	hip_rotation_r	knee_angle_r	ankle_angle_r	subtalar_angle_r	mtp_angle_r	hip_flexion_l	hip_adduction_l	hip_rotation_l	knee_angle_l	ankle_angle_l	subtalar_angle_l	mtp_angle_l	lumbar_extension	lumbar_bending	lumbar_rotation
      6.14000000	      1.96336256	      1.43305210	     -5.13913626	     -1.35222066	      0.93055006	      0.45152604	      2.79096748	     -0.59776669	      5.16582147	    -56.36815183	     -7.74912072	      0.86537869	      0.00000000	      9.55941409	      4.76705341	      0.30307328	    -12.72500697	      6.27809863	     -8.66305454	      0.00000000	    -20.18271212	     -4.71560525	     -0.96662911
      6.15000000	      1.76883174	      1.58098975	     -4.90244658	     -1.34184607	      0.93136793	      0.45065586	      4.87059839	     -0.67661435	      4.62944704	    -58.30318009	     -6.69627402	     -0.90609160	      0.00000000	      8.86888058	      4.99375744	      0.19647784	    -12.33831227	      6.89932603	     -7.99031371	      0.00000000	    -20.11041701	     -4.69854026	     -1.45534073
      6.16000000	      1.60510786	      1.61830815	     -4.58017777	     -1.33155867	      0.93231228	      0.44968443	      6.81305882	     -0.65706953	      3.98749800	    -59.75426209	     -5.37467877	     -2.89052428	      0.00000000	      8.13134931	      5.12217591	      0.24109894	    -11.93762370	      7.51755136	     -7.37642054	      0.00000000	    -20.09925458	     -4.52122880	     -2.00938539
      6.17000000	      1.45726287	      1.55552468	     -4.16249992	     -1.32133001	      0.93335179	      0.44854906	      8.62996567	     -0.57678845	      3.21221697	    -60.72616790	     -3.91553138	     -4.93498237	      0.00000000	      7.32645140	      5.17469242	      0.59317501	    -11.45366443	      7.90796179	     -7.00034591	      0.00000000	    -20.12189235	     -4.18985886	     -2.58384152
      6.18000000	      1.35344776	      1.40805069	     -3.70433045	     -1.31118080	      0.93445572	      0.44733493	     10.29959811	     -0.44643224	      2.37391740	    -61.24767136	     -2.41905894	     -6.93492166	      0.00000000	      6.47188155	      5.14345740	      0.99918454	    -10.96749595	      8.32874469	     -6.73471498	      0.00000000	    -20.21449602	     -3.74840698	     -3.12783423
      6.19000000	      1.24040872	      1.11402654	     -3.26785863	     -1.30108403	      0.93559562	      0.44615094	     11.86080865	     -0.14420349	      1.60158558	    -61.30032363	     -1.21117287	     -9.04917321	      0.00000000	      5.59040177	      4.94305426	      1.42461840	    -10.41827213	      8.65260037	     -6.49915600	      0.00000000	    -20.29623120	     -3.13487156	     -3.57033795
      6.20000000	      1.19112544	      0.78613554	     -2.83948976	     -1.29104174	      0.93675679	      0.44496984	     13.25648834	      0.17497308	      0.85359248	    -60.95098507	     -0.08212959	    -10.88809283	      0.00000000	      4.61611712	      4.70151819	      1.87361252	     -9.81096219	      8.97004621	     -6.31379273	      0.00000000	    -20.45937268	     -2.48515735	     -3.98768764
      6.21000000	      1.16915993	      0.41978056	     -2.43989284	     -1.28104591	      0.93786981	      0.44388141	     14.52380103	      0.54154148	      0.17394758	    -60.21748322	      0.92874178	    -12.44128383	      0.00000000	      3.60229973	      4.39897912	      2.28657599	     -9.17086052	      9.28695072	     -6.14220541	      0.00000000	    -20.64942419	     -1.82058851	     -4.35193725
      6.22000000	      1.18469069	      0.02132753	     -2.08194807	     -1.27110069	      0.93892850	      0.44288882	     15.64558125	      0.96028521	     -0.40423456	    -59.10429963	      1.71815388	    -13.83958602	      0.00000000	      2.54828528	      4.04401926	      2.65341243	     -8.51669737	      9.56777664	     -5.99169724	      0.00000000	    -20.88800439	     -1.13134778	     -4.61359593
